<svg width="1284" height="2778" xmlns="http://www.w3.org/2000/svg" xml:space="preserve" enable-background="new 0 0 595.28 841.89" version="1.1">
 <defs>
  <filter id="svg_2_blur" x="-50%" y="-50%" width="200%" height="200%">
   <feGaussianBlur in="SourceGraphic" stdDeviation="10"/>
  </filter>
  <linearGradient y2="1.00986" x2="0.97374" y1="-0.07287" x1="-0.03229" id="SVGID_1_">
   <stop stop-color="#4BCF80" offset="0"/>
   <stop stop-color="#3FBA71" offset="1"/>
  </linearGradient>
 </defs>
 <g>
  <title>Layer 1</title>
  <path id="svg_2" d="m105.16968,1115.68384c0,-22.70776 13.06952,-45.57996 32.51024,-55.38135l471.8094,-273.31665c19.44098,-13.06964 45.58008,-13.06964 65.02075,0l471.80951,273.31665c19.44116,13.06909 32.51074,32.50977 32.51074,55.38135l0,546.6322c0,22.7085 -13.06958,45.58008 -32.51074,55.38208l-471.80951,273.31616c-19.44067,13.06946 -45.57977,13.06946 -65.02075,0l-471.8094,-273.31616c-19.44072,-13.0697 -32.51024,-32.50989 -32.51024,-55.38208c0,0 0,-546.6322 0,-546.6322z" fill="url(#SVGID_1_)" stroke="null" filter="url(#svg_2_blur)"/>
  <g id="svg_13" stroke="null">
   <path id="svg_14" d="m523.72076,1127.93628l0,-30.87585c0,-14.05017 -15.35663,-22.87219 -27.44586,-15.84717l-144.41803,83.31787c-13.8866,8.00549 -22.5448,22.87231 -22.5448,39.04529l0,455.96277c0,18.62341 20.09406,30.22363 36.26779,20.91138l443.70987,-256.1626c3.92114,-2.28735 6.20807,-6.37109 6.20807,-10.78186l0,-400.09106c0,-18.62354 -20.09442,-30.22284 -36.26801,-20.91107l-244.89032,141.4776c-4.90082,2.77698 -10.61871,-0.49023 -10.61871,-6.04529z" fill="#472F91" stroke="null"/>
   <path id="svg_15" d="m591.68225,1180.21509l0,-30.87708c0,-14.04956 -15.35669,-22.8717 -27.44574,-15.84668l-144.41815,83.31799c-13.88672,8.00537 -22.54489,22.87158 -22.54489,39.04578l0,455.96216c0,18.62402 20.09439,30.22327 36.26785,20.91138l443.7099,-256.1626c3.92084,-2.28674 6.20819,-6.37109 6.20819,-10.78186l0,-400.09106c0,-18.62354 -20.09503,-30.22314 -36.26849,-20.91077l-244.89001,141.47742c-4.7373,2.77686 -10.61896,-0.49023 -10.61896,-6.04468l0.00031,0z" fill="#4F3AA5" stroke="null"/>
   <path id="svg_16" d="m677.28754,1232.65601l0,-30.87671c0,-14.04944 -15.35669,-22.87158 -27.44586,-15.84656l-144.41833,83.31799c-13.88641,8.00549 -22.54468,22.87158 -22.54468,39.04517l0,455.96277c0,18.62415 20.09418,30.22314 36.2677,20.91138l443.71027,-256.1626c3.92053,-2.28723 6.20789,-6.37158 6.20789,-10.78235l0,-400.0907c0,-18.62354 -20.09448,-30.22314 -36.26782,-20.91138l-244.88995,141.47742c-4.73773,2.6145 -10.6192,-0.65344 -10.6192,-6.04443l0,0z" fill="#5D47BA" stroke="null"/>
  </g>
  <g id="svg_23">
   <g id="svg_21">
    <path id="svg_4" d="m264.72992,2043.56567l25.3703,97.18286l25.30029,-97.18286l35.43439,0l0,134.36475l-27.22223,0l0,-36.37817l2.48108,-56.01709l-26.87292,92.36011l-18.45111,0l-26.87279,-92.36011l2.481,56.01709l0,36.37817l-27.11742,0l0,-134.36475l35.46941,0z" fill="#414144" stroke="null"/>
    <path id="svg_5" d="m411.63959,2179.74731c-13.41895,0 -23.86755,-3.98364 -31.38074,-11.98608c-7.51331,-8.00244 -11.25238,-19.42944 -11.25238,-34.31616l0,-7.93262c0,-15.76025 3.45959,-27.88647 10.34375,-36.448c6.88428,-8.56152 16.77368,-12.82471 29.63354,-12.82471c12.54535,0 21.98053,4.01855 28.34064,12.021c6.32507,8.00244 9.57495,19.88379 9.67981,35.60938l0,12.82471l-51.96362,0c0.38452,7.40845 1.99194,12.82495 4.89233,16.28442s7.3385,5.13696 13.38409,5.13696c8.73633,0 16.03992,-2.97021 21.87567,-8.94604l10.23901,15.79541c-3.21503,4.43799 -7.86267,8.00244 -13.94324,10.76318c-6.11545,2.65576 -12.72003,4.01855 -19.84897,4.01855l0,0l0.00003,0l0.00003,0l0.00003,0zm-16.42413,-61.25879l26.10394,0l0,-2.41138c-0.13965,-5.97559 -1.11816,-10.48364 -2.93536,-13.55884c-1.85211,-3.0752 -5.03217,-4.61279 -9.60992,-4.61279s-7.86267,1.64258 -9.9245,4.89258c-2.06177,3.24976 -3.28485,8.49146 -3.63422,15.69043l0.00006,0z" fill="#414144" stroke="null"/>
    <path id="svg_6" d="m458.60602,2124.95337c0,-16.35449 2.9704,-28.58521 8.8761,-36.6228c5.90576,-8.07227 14.18774,-12.09082 24.81116,-12.09082c9.0509,0 16.03998,3.56421 20.93225,10.69312l1.01343,-8.87622l23.51813,0l0,99.83862c0,12.72021 -3.56433,22.46997 -10.69324,29.21436s-17.36786,10.09912 -30.71698,10.09912c-5.48633,0 -11.21741,-1.08325 -17.26294,-3.28491s-10.51843,-4.96216 -13.48889,-8.35181l8.77136,-18.10156c2.44604,2.58594 5.66119,4.68262 9.60999,6.32495s7.65295,2.44629 11.18237,2.44629c5.83594,0 10.02921,-1.39795 12.58029,-4.19336c2.55106,-2.79565 3.84402,-7.30371 3.91391,-13.52393l0,-8.59644c-4.99716,6.53467 -11.46204,9.78467 -19.46454,9.78467c-10.65833,0 -18.87036,-4.12354 -24.67133,-12.40576s-8.7713,-19.95361 -8.91107,-35.01489l0,-7.33862l0,0l0,0zm26.10413,6.53467c0,9.22559 1.18811,15.93506 3.59937,20.16333s6.22021,6.3252 11.427,6.3252c5.34665,0 9.33044,-1.92188 11.91644,-5.80103l0,-47.7002c-2.69086,-4.22827 -6.60458,-6.36011 -11.70673,-6.36011c-5.17188,0 -9.01581,2.13184 -11.49695,6.36011s-3.73914,11.07764 -3.73914,20.47803l0,6.53467l0,0l0,0z" fill="#414144" stroke="null"/>
    <path id="svg_7" d="m604.22278,2177.93042c-0.73376,-1.5376 -1.46765,-4.12354 -2.20148,-7.75806c-4.6828,6.39502 -11.00775,9.61011 -19.01019,9.61011c-8.35193,0 -15.30591,-2.76074 -20.82739,-8.31714c-5.52124,-5.52124 -8.24707,-12.71997 -8.24707,-21.49121c0,-10.44849 3.35468,-18.55591 10.02942,-24.28687s16.2843,-8.63159 28.82971,-8.77124l7.9325,0l0,-8.0376c0,-4.4729 -0.76868,-7.65283 -2.3064,-9.50513s-3.77399,-2.7605 -6.74432,-2.7605c-6.53473,0 -9.78485,3.80908 -9.78485,11.427l-26.104,0c0,-9.22559 3.45966,-16.84351 10.37866,-22.85425s15.65552,-9.01587 26.2439,-9.01587c10.93805,0 19.42963,2.83057 25.44019,8.52686s8.98096,13.83813 8.98096,24.3916l0,46.96631c0.13977,8.59668 1.36298,15.34106 3.70422,20.19849l0,1.57251l-26.31384,0l0,0.10498l0,0zm-15.41077,-18.66089c2.90045,0 5.34656,-0.59399 7.37341,-1.74731s3.52954,-2.55103 4.50806,-4.15845l0,-20.75757l-6.29004,0c-4.43823,0 -7.9328,1.43286 -10.48364,4.22852c-2.55115,2.83057 -3.84399,6.60449 -3.84399,11.35718c0.0697,7.40845 2.97021,11.07764 8.73621,11.07764z" fill="#414144" stroke="null"/>
   </g>
   <g id="svg_22">
    <path id="svg_8" d="m738.13293,2140.53882c-0.66394,15.30591 -4.99695,26.90771 -12.92957,34.80542c-7.93274,7.86255 -19.15009,11.81152 -33.58252,11.81152c-15.20117,0 -26.83777,-4.99731 -34.94519,-14.9917c-8.10742,-9.99414 -12.12604,-24.25195 -12.12604,-42.77295l0,-22.60962c0,-18.45093 4.1933,-32.67383 12.54541,-42.66797s19.98865,-14.9917 34.87537,-14.9917c14.64215,0 25.75458,4.08887 33.37262,12.26587c7.58313,8.17725 11.91638,19.9187 12.9646,35.25977l-27.22223,0c-0.24463,-9.47021 -1.71228,-16.00488 -4.36798,-19.60425c-2.69092,-3.59937 -7.58337,-5.38159 -14.71204,-5.38159c-7.26868,0 -12.40558,2.55103 -15.41101,7.61816s-4.61267,13.41895 -4.78748,25.05566l0,25.37012c0,13.34912 1.50281,22.50488 4.47296,27.5022s8.10742,7.47803 15.37604,7.47803c7.12866,0 12.05603,-1.74707 14.7818,-5.20679c2.69073,-3.49438 4.22821,-9.74976 4.61285,-18.87036l27.0824,0l0,-0.06982l0,0z" fill="#414144" stroke="null"/>
    <path id="svg_9" d="m780.97589,2185.30371l-26.2088,0l0,-141.73804l26.2088,0l0,141.73804z" fill="#414144" stroke="null"/>
    <path id="svg_10" d="m798.13403,2132.15186c0,-15.13135 3.56439,-27.0127 10.69324,-35.60938s17.01831,-12.92969 29.63354,-12.92969c12.72009,0 22.67944,4.29834 29.80847,12.92969s10.69324,20.54785 10.69324,35.81909l0,6.35986c0,15.20142 -3.5296,27.08276 -10.62354,35.60938s-16.98315,12.82471 -29.70349,12.82471c-12.78992,0 -22.74927,-4.2981 -29.84314,-12.85986c-7.09393,-8.59644 -10.65833,-20.5127 -10.65833,-35.74902l0,-6.39478zm26.20886,6.53467c0,17.85718 4.75269,26.76807 14.2926,26.76807c8.80634,0 13.5238,-7.44336 14.2229,-22.32983l0.10486,-10.9729c0,-9.12061 -1.25806,-15.86523 -3.77411,-20.26831c-2.51605,-4.40308 -6.08051,-6.60449 -10.69318,-6.60449c-4.43811,0 -7.89777,2.20142 -10.37891,6.60449s-3.73901,11.14771 -3.73901,20.26831l0,6.53467l-0.03516,0l0,0z" fill="#414144" stroke="null"/>
    <path id="svg_11" d="m944.31,2176.14795c-5.4165,7.30347 -12.68524,10.97266 -21.77094,10.97266c-9.15558,0 -16.10968,-3.14502 -20.8623,-9.47021c-4.75256,-6.29004 -7.09399,-15.48071 -7.09399,-27.53662l0,-64.68384l26.10413,0l0,65.34766c0.13995,9.71484 3.35492,14.57227 9.67999,14.57227c5.97552,0 10.27386,-2.58594 12.92969,-7.75781l0,-72.16211l26.31366,0l0,99.83862l-24.56641,0l-0.73383,-9.12061z" fill="#414144" stroke="null"/>
    <path id="svg_12" d="m984.74176,2132.32666c0,-16.35449 2.76056,-28.58521 8.31689,-36.6228c5.5213,-8.07227 13.59363,-12.09082 24.18207,-12.09082c7.68811,0 14.08289,3.31982 19.18494,9.95923l0,-50.00659l26.31384,0l0,141.73804l-23.72791,0l-1.18823,-10.16919c-5.34656,8.00244 -12.23083,11.98633 -20.6875,11.98633c-10.44861,0 -18.45105,-3.98389 -23.93738,-11.98633c-5.52148,-8.00244 -8.31702,-19.7439 -8.45673,-35.25977l0,-7.5481l0,0l0,0zm26.20892,6.53467c0,9.85474 1.04822,16.70386 3.1449,20.61768s5.62634,5.87085 10.62341,5.87085c5.172,0 9.08582,-2.3064 11.70667,-6.91919l0,-45.60352c-2.58594,-4.92725 -6.46484,-7.37354 -11.63684,-7.37354c-4.78735,0 -8.31689,1.92212 -10.51837,5.80103s-3.31976,10.76294 -3.31976,20.6875l0,6.91919l0,0z" fill="#414144" stroke="null"/>
   </g>
  </g>
 </g>
</svg>