<svg width="329" height="75" xmlns="http://www.w3.org/2000/svg" xml:space="preserve" enable-background="new 0 0 595.28 841.89" version="1.1">
 <defs>
  <linearGradient y2="1.00986" x2="0.97374" y1="-0.07287" x1="-0.03229" id="SVGID_1_">
   <stop stop-color="#4BCF80" offset="0"/>
   <stop stop-color="#3FBA71" offset="1"/>
  </linearGradient>
 </defs>
 <g>
  <title>Layer 1</title>
  <g id="svg_1">
   <path id="svg_2" d="m0,20.72c0,-1.38998 0.8,-2.79001 1.98999,-3.38998l28.88,-16.73001c1.19,-0.80002 2.79001,-0.80002 3.98001,0l28.87999,16.73001c1.19002,0.79999 1.99002,1.98999 1.99002,3.38998l0,33.45999c0,1.39001 -0.8,2.79001 -1.99002,3.39001l-28.87999,16.72998c-1.19,0.80002 -2.79001,0.80002 -3.98001,0l-28.88,-16.72998c-1.18999,-0.80002 -1.98999,-1.98999 -1.98999,-3.39001c0,0 0,-33.45999 0,-33.45999z" fill="url(#SVGID_1_)"/>
   <g id="svg_3" enable-background="new    ">
    <path id="svg_4" d="m100.36002,18.19l7.26001,27.81l7.23999,-27.81l10.13998,0l0,38.45001l-7.78998,0l0,-10.41l0.70999,-16.03l-7.69,26.42999l-5.28001,0l-7.68997,-26.42999l0.70998,16.03l0,10.41l-7.75998,0l0,-38.45001l10.14999,0z" fill="#414144"/>
    <path id="svg_5" d="m142.39999,57.16c-3.84,0 -6.82999,-1.14001 -8.97998,-3.42999c-2.15002,-2.29001 -3.22,-5.56 -3.22,-9.82001l0,-2.26999c0,-4.51001 0.98999,-7.98001 2.95999,-10.43002c1.97,-2.44998 4.79999,-3.66998 8.47998,-3.66998c3.59,0 6.29001,1.14999 8.11002,3.44c1.81,2.28998 2.73999,5.69 2.76999,10.19l0,3.66998l-14.87,0c0.11002,2.12 0.57001,3.67001 1.39999,4.66s2.10001,1.47 3.83002,1.47c2.5,0 4.59,-0.85001 6.25998,-2.56l2.93002,4.51999c-0.92001,1.27002 -2.25,2.29001 -3.99002,3.08002c-1.75,0.75998 -3.63998,1.14999 -5.67999,1.14999zm-4.69998,-17.53l7.46997,0l0,-0.69c-0.03998,-1.70999 -0.31998,-3 -0.84,-3.88c-0.53,-0.88 -1.44,-1.32001 -2.75,-1.32001s-2.25,0.47 -2.84,1.40002c-0.59,0.92999 -0.94,2.42999 -1.03998,4.48999z" fill="#414144"/>
    <path id="svg_6" d="m155.84,41.48001c0,-4.67999 0.85001,-8.17999 2.54001,-10.48001c1.69,-2.31 4.06,-3.45999 7.09998,-3.45999c2.59003,0 4.59003,1.01999 5.99002,3.06l0.28998,-2.54001l6.73001,0l0,28.57001c0,3.64001 -1.01999,6.42999 -3.06,8.36002s-4.97,2.88998 -8.79001,2.88998c-1.56998,0 -3.20999,-0.31 -4.94,-0.94s-3.00998,-1.41998 -3.85999,-2.38998l2.51001,-5.17999c0.69998,0.73999 1.62,1.34 2.75,1.81s2.19,0.69998 3.19998,0.69998c1.67001,0 2.87,-0.39999 3.60001,-1.19998c0.73001,-0.80002 1.10001,-2.09 1.12,-3.87003l0,-2.45999c-1.42999,1.87 -3.28,2.80002 -5.57001,2.80002c-3.04999,0 -5.39999,-1.18002 -7.06,-3.55002s-2.50998,-5.70999 -2.54999,-10.01999l0,-2.10001l0,0zm7.47,1.87c0,2.63998 0.34,4.56 1.03,5.76999s1.78,1.81 3.26999,1.81c1.53,0 2.67001,-0.54999 3.41,-1.66l0,-13.64999c-0.76999,-1.20999 -1.88998,-1.82001 -3.35001,-1.82001c-1.47998,0 -2.57999,0.61002 -3.28998,1.82001s-1.07001,3.17001 -1.07001,5.86002l0,1.87l0,0z" fill="#414144"/>
    <path id="svg_7" d="m197.50998,56.64001c-0.20999,-0.44 -0.41998,-1.17999 -0.63,-2.22c-1.34,1.82999 -3.14999,2.75 -5.44,2.75c-2.38998,0 -4.37997,-0.79001 -5.95999,-2.38c-1.57999,-1.57999 -2.35999,-3.63998 -2.35999,-6.14999c0,-2.98999 0.95999,-5.31 2.87,-6.95001s4.65997,-2.47 8.25,-2.50998l2.26999,0l0,-2.30002c0,-1.28 -0.22,-2.19 -0.66,-2.72s-1.07999,-0.78998 -1.92999,-0.78998c-1.87,0 -2.80002,1.09 -2.80002,3.26999l-7.47,0c0,-2.64001 0.99002,-4.82001 2.97,-6.54001s4.48001,-2.57999 7.51001,-2.57999c3.13,0 5.56,0.81 7.28,2.44s2.57001,3.95999 2.57001,6.97998l0,13.44c0.04001,2.46002 0.39001,4.39001 1.06,5.78l0,0.45001l-7.53,0l0,0.03zm-4.40997,-5.34003c0.82999,0 1.53,-0.16998 2.10999,-0.5s1.01001,-0.72998 1.29001,-1.19l0,-5.94l-1.79999,0c-1.27002,0 -2.27002,0.41 -3,1.21002c-0.73001,0.81 -1.10001,1.88998 -1.10001,3.25c0.01999,2.12 0.84998,3.16998 2.5,3.16998z" fill="#414144"/>
    <path id="svg_8" d="m235.82999,43.83002c-0.19,4.38 -1.42999,7.69998 -3.70001,9.95999c-2.26999,2.25 -5.47998,3.38 -9.60999,3.38c-4.35001,0 -7.67999,-1.42999 -10,-4.29001c-2.32001,-2.85999 -3.47,-6.94 -3.47,-12.23999l0,-6.47c0,-5.28 1.19998,-9.35001 3.59,-12.20999s5.72,-4.29001 9.98001,-4.29001c4.19,0 7.37,1.17001 9.54999,3.51001c2.17001,2.34 3.41,5.69998 3.70999,10.09l-7.78998,0c-0.07001,-2.71002 -0.49002,-4.57999 -1.25,-5.61002c-0.77002,-1.03 -2.17001,-1.53998 -4.21002,-1.53998c-2.07999,0 -3.54999,0.72998 -4.41,2.17999s-1.31998,3.84 -1.37,7.16998l0,7.26001c0,3.82001 0.43002,6.44 1.28,7.87003s2.32001,2.13998 4.40002,2.13998c2.03998,0 3.44998,-0.5 4.22998,-1.48999c0.77002,-1 1.20999,-2.79001 1.32001,-5.39999l7.75,0l0,-0.02002z" fill="#414144"/>
    <path id="svg_9" d="m248.09,56.64001l-7.5,0l0,-40.56l7.5,0l0,40.56z" fill="#414144"/>
    <path id="svg_10" d="m253,41.42999c0,-4.32999 1.01999,-7.73001 3.06,-10.19s4.87,-3.70001 8.48001,-3.70001c3.63998,0 6.48999,1.23001 8.53,3.70001s3.06,5.88 3.06,10.25l0,1.82001c0,4.35001 -1.01001,7.75 -3.04001,10.19s-4.85999,3.66998 -8.5,3.66998c-3.66,0 -6.50998,-1.22998 -8.53998,-3.67999c-2.03003,-2.45999 -3.05002,-5.87 -3.05002,-10.23001l0,-1.82999zm7.5,1.87c0,5.11002 1.36002,7.66 4.09,7.66c2.52002,0 3.87,-2.13 4.07001,-6.38998l0.03,-3.14001c0,-2.60999 -0.35999,-4.54001 -1.07999,-5.79999c-0.72,-1.26001 -1.74002,-1.89001 -3.06,-1.89001c-1.27002,0 -2.26001,0.63 -2.97,1.89001s-1.07001,3.19 -1.07001,5.79999l0,1.87l-0.01001,0z" fill="#414144"/>
    <path id="svg_11" d="m294.82999,54.01999c-1.54999,2.09 -3.63,3.14001 -6.23001,3.14001c-2.62,0 -4.60999,-0.90002 -5.97,-2.71002c-1.35999,-1.79999 -2.03,-4.42999 -2.03,-7.87997l0,-18.51001l7.47,0l0,18.69998c0.04001,2.78 0.96002,4.17001 2.77002,4.17001c1.70999,0 2.94,-0.73999 3.69998,-2.22l0,-20.64999l7.53,0l0,28.57001l-7.03,0l-0.20999,-2.61002z" fill="#414144"/>
    <path id="svg_12" d="m306.39999,41.48001c0,-4.67999 0.79001,-8.17999 2.38,-10.48001c1.57999,-2.31 3.88998,-3.45999 6.91998,-3.45999c2.20001,0 4.03,0.95001 5.49002,2.85001l0,-14.31l7.53,0l0,40.56l-6.79001,0l-0.34,-2.91c-1.53,2.29001 -3.5,3.42999 -5.92001,3.42999c-2.98999,0 -5.28,-1.13998 -6.84998,-3.42999c-1.58002,-2.29001 -2.38,-5.64999 -2.42001,-10.09l0,-2.16l0,0zm7.5,1.87c0,2.82001 0.29999,4.78 0.89999,5.89999s1.61002,1.67999 3.04001,1.67999c1.48001,0 2.60001,-0.66 3.35001,-1.97998l0,-13.05002c-0.74002,-1.41 -1.85001,-2.10999 -3.33002,-2.10999c-1.37,0 -2.38,0.54999 -3.00998,1.66s-0.95001,3.07999 -0.95001,5.91998l0,1.98001z" fill="#414144"/>
   </g>
   <g id="svg_13">
    <path id="svg_14" d="m25.62,21.47l0,-1.88998c0,-0.86002 -0.94,-1.40002 -1.67999,-0.97l-8.84,5.09998c-0.85001,0.49002 -1.37999,1.40002 -1.37999,2.39001l0,27.91c0,1.13998 1.22998,1.85001 2.21999,1.28l27.16,-15.67999c0.24001,-0.14001 0.38,-0.39001 0.38,-0.66l0,-24.49002c0,-1.13998 -1.23001,-1.84998 -2.22,-1.28l-14.99002,8.66c-0.29999,0.17001 -0.64999,-0.03 -0.64999,-0.37z" fill="#472F91"/>
    <path id="svg_15" d="m29.78,24.67001l0,-1.89001c0,-0.85999 -0.94,-1.39999 -1.67999,-0.97l-8.84,5.10001c-0.85002,0.49002 -1.38,1.39999 -1.38,2.39001l0,27.91c0,1.13998 1.23001,1.84998 2.22,1.28l27.16,-15.68002c0.23999,-0.13998 0.38,-0.38998 0.38,-0.65997l0,-24.49002c0,-1.13998 -1.23003,-1.85001 -2.22002,-1.28l-14.99001,8.66c-0.28998,0.16998 -0.64999,-0.03 -0.64999,-0.37z" fill="#4F3AA5"/>
    <path id="svg_16" d="m35.02,27.88l0,-1.89001c0,-0.85999 -0.94,-1.39999 -1.67999,-0.97l-8.84001,5.10001c-0.85001,0.49002 -1.38,1.39999 -1.38,2.39001l0,27.91c0,1.13998 1.23,1.84998 2.21999,1.28l27.16002,-15.68002c0.23999,-0.13998 0.38,-0.38998 0.38,-0.65997l0,-24.49002c0,-1.13998 -1.23001,-1.85001 -2.22,-1.28l-14.98999,8.66c-0.29001,0.16 -0.65001,-0.04001 -0.65001,-0.37z" fill="#5D47BA"/>
   </g>
  </g>
 </g>
</svg>